<svg xmlns="http://www.w3.org/2000/svg" viewBox="0 0 64 64">
  <title>CaliphAuction Favicon</title>
  <defs>
    <linearGradient id="g" x1="0%" y1="0%" x2="100%" y2="100%">
      <stop offset="0%" stop-color="#fde047" />
      <stop offset="55%" stop-color="#fbbf24" />
      <stop offset="100%" stop-color="#f59e0b" />
    </linearGradient>
  </defs>
  <path d="M14 36c0-5 7-9 18-11 3.6-.6 7.2-.9 10-.9s6.4.3 10 .9c11 2 18 6 18 11s-7 9-18 11c-3.6.6-7.2.9-10 .9s-6.4-.3-10-.9c-11-2-18-6-18-11Z" fill="url(#g)"/>
  <path d="M48 34c4.6 0 9-1.8 11.7-4.6 1.4-1.6 2.7-3.9 1.6-5.7-1-1.8-4-2.4-6.8-1.7-2 .5-4.1 1.3-6 2.3-1.3.7-2.6 1.6-3.4 2.7-.8 1.1-.6 2.1.3 2.9.9.8 2.4 1.4 4.2 1.4Z" fill="url(#g)"/>
  <path d="M22 34c-3.2-1.8-5.4-4.7-5.4-8 0-4 3.6-7.6 8.1-8.9 2.2-.6 4.4-.5 6.2.2 1.8.7 2.7 2 2.3 3.3-.3 1.3-1.8 2.3-3.4 2-1-.2-1.7-1.1-2.6-1.6-.8-.5-1.8-.7-2.8-.4-1.3.4-2.4 1.7-2.4 3 0 2 1.9 3.7 4.2 5 .1.1.3.2.4.3 1.5.9 2 2.7.8 3.9-1.1.9-3.1.9-5.4-.1Z" fill="url(#g)"/>
  <path d="M44 30c0-2-6.2-3.6-16-3.6S12 28 12 30s6.2 3.6 16 3.6 16-1.6 16-3.6Z" fill="#fef3c7"/>
  <path d="M32 19.4c0-2.9 1.6-5.8 3.7-8.3 1.4-1.7 3-3.2 4-5 1-1.8.8-3.9-.7-5.4-1.4-1.5-3.8-2.1-5.7-1.4-2.1.7-3.4 2.5-3.8 4.3-.5 1.8-.2 3.7.3 5.4.4 1.5.7 2.9.6 4.4-.2 2.3-1.7 4.5-1.7 6.8 0 4 3.2 7.3 7.1 7.3 3.2 0 6.1-2.4 6.9-5.4.7-3-1-6.4-3.6-7.9-2.1-1.1-4.1.9-5.2.9-.8 0-1-.7-1-1.1Z" fill="#fcd34d"/>
</svg>
