<svg xmlns="http://www.w3.org/2000/svg" width="128" height="128" viewBox="0 0 128 128" role="img" aria-labelledby="logoTitle logoDesc">
  <title id="logoTitle">カリフオークション ロゴ (ランプ)</title>
  <desc id="logoDesc">Genie lamp emitting a bidding spark inside a radiant ring, symbolizing wishes turning into successful auction wins.</desc>
  <defs>
    <radialGradient id="rg-bg" cx="50%" cy="50%" r="60%">
      <stop offset="0%" stop-color="#6366f1" stop-opacity="0.45" />
      <stop offset="55%" stop-color="#8b5cf6" stop-opacity="0.22" />
      <stop offset="100%" stop-color="#ec4899" stop-opacity="0.05" />
    </radialGradient>
    <linearGradient id="stroke-ring" x1="0%" y1="0%" x2="100%" y2="0%">
      <stop offset="0%" stop-color="#ec4899" />
      <stop offset="55%" stop-color="#8b5cf6" />
      <stop offset="100%" stop-color="#6366f1" />
    </linearGradient>
    <linearGradient id="lamp-body" x1="0%" y1="0%" x2="100%" y2="100%">
      <stop offset="0%" stop-color="#fdf4ff" />
      <stop offset="65%" stop-color="#ffffff" />
      <stop offset="100%" stop-color="#e9d5ff" />
    </linearGradient>
    <linearGradient id="flame" x1="0%" y1="0%" x2="100%" y2="100%">
      <stop offset="0%" stop-color="#f0abfc" />
      <stop offset="60%" stop-color="#c084fc" />
      <stop offset="100%" stop-color="#6366f1" />
    </linearGradient>
    <filter id="inner-glow" x="-30%" y="-30%" width="160%" height="160%" color-interpolation-filters="sRGB">
      <feGaussianBlur in="SourceGraphic" stdDeviation="2.2" result="blur" />
      <feComposite in="blur" in2="SourceGraphic" operator="arithmetic" k2="0.7" k3="0.3" />
    </filter>
    <filter id="drop" x="-20%" y="-20%" width="140%" height="140%">
      <feDropShadow dx="0" dy="2" stdDeviation="3" flood-color="#000" flood-opacity="0.28" />
    </filter>
  </defs>

  <!-- Soft radial aura -->
  <circle cx="64" cy="64" r="56" fill="url(#rg-bg)" />
  <!-- Dynamic outer ring referencing bidding countdown -->
  <circle cx="64" cy="64" r="46" fill="none" stroke="url(#stroke-ring)" stroke-width="6" stroke-linecap="round" stroke-dasharray="38 14 8 300" />

  <!-- Lamp group -->
  <g filter="url(#drop)" transform="translate(64 72) translate(-64 -72)">
    <!-- Base shadow ellipse -->
    <ellipse cx="64" cy="92" rx="30" ry="7" fill="#000" opacity="0.15" />
    <!-- Body -->
    <path d="M36 74c0-6 8-11 20-13 4-0.7 8-1 12-1s8 .3 12 1c12 2 20 7 20 13 0 6-8 11-20 13-4 .7-8 1-12 1s-8-.3-12-1c-12-2-20-7-20-13Z" fill="url(#lamp-body)" />
    <!-- Spout -->
    <path d="M88 70c5 0 10-2 13-5 1.6-1.7 3-4.4 1.8-6.5-1.2-2.1-4.5-2.7-7.5-1.9-2.3.5-4.5 1.4-6.6 2.6-1.4.8-2.8 1.8-3.7 3-.9 1.2-.7 2.4.3 3.3 1 .9 2.7 1.5 4.7 1.5Z" fill="url(#lamp-body)" />
    <!-- Handle -->
    <path d="M44 72c-3.5-2-6-5.3-6-9 0-4.5 4-8.5 9-10 2.5-.7 5-.6 7 .2 2 .8 3 2.3 2.6 3.7-.4 1.4-2 2.6-3.8 2.2-1.2-.3-1.9-1.2-2.9-1.8-.9-.5-2-.8-3.2-.4-1.5.5-2.7 1.9-2.7 3.3 0 2.2 2.1 4.2 4.8 5.7 1.8 1 2.3 3 .9 4.3-1.2 1-3.5 1-6.7-.2Z" fill="url(#lamp-body)" />
    <!-- Top rim -->
    <path d="M44 68c0-2.2 7-4 20-4s20 1.8 20 4-7 4-20 4-20-1.8-20-4Z" fill="#ede9fe" />
    <!-- Inner glow accent -->
    <ellipse cx="64" cy="68" rx="14" ry="3.5" fill="#ffffff" opacity="0.55" filter="url(#inner-glow)" />
    <!-- Flame / wish spark -->
    <path d="M64 52c0-3.2 1.8-6.5 4.2-9.4 1.6-1.9 3.4-3.6 4.6-5.6 1.2-2 .9-4.4-.8-6.2-1.5-1.7-4.3-2.4-6.4-1.6-2.4.8-3.8 2.8-4.3 4.9-.6 2.1-.2 4.2.3 6.2.4 1.7.8 3.3.6 5-.3 2.6-1.9 5.1-1.9 7.7 0 4.5 3.6 8.2 7.9 8.2 3.6 0 6.8-2.7 7.7-6.1.8-3.4-1-7.1-4.1-8.8-2.3-1.2-4.6 1-5.8 1-1 0-1.2-.8-1.2-1.3Z" fill="url(#flame)" />
    <!-- Spark particles -->
    <circle cx="80" cy="40" r="2.2" fill="#f0abfc" opacity="0.85" />
    <circle cx="74" cy="34" r="1.5" fill="#c084fc" opacity="0.75" />
    <circle cx="70" cy="44" r="1.8" fill="#6366f1" opacity="0.65" />
  </g>
</svg>
